Coordinates
nRows=15
nColumns=24

# SIMM Motion File Header:
name Coordinates
datacolumns 24
datarows 15
otherdata 1
range 0.22167000000000001000 0.23567000000000002000
endheader
time	pelvis_tx	pelvis_ty	pelvis_tz	pelvis_tilt	pelvis_list	pelvis_rotation	hip_flexion_r	hip_adduction_r	hip_rotation_r	knee_angle_r	ankle_angle_r	subtalar_angle_r	mtp_angle_r	hip_flexion_l	hip_adduction_l	hip_rotation_l	knee_angle_l	ankle_angle_l	subtalar_angle_l	mtp_angle_l	lumbar_extension	lumbar_bending	lumbar_rotation
      0.22167000000000001000	      0.08116769622871843100	      0.80174845195719624000	     -0.28809564728310266000	     -1.94261112262503420000	      4.39440414186221770000	     -5.46201652593945400000	      6.02916180501274020000	     -6.52894047925039530000	     -3.80428222738333100000	    -52.47724100615511800000	    -20.52266739069525800000	      0.00000000000000030437	      0.00000000000000023184	     14.64688635951649000000	      5.04095257922978850000	     -2.47856309603358180000	    -11.83855122295603700000	     -0.58580862039121095000	     -0.00000000000000286792	     -0.00000000000000138231	     -0.49904858626108517000	     -7.03382881415174580000	      5.41368698490730700000
      0.22267000000000001000	      0.08200095619562795800	      0.80192590661892094000	     -0.28818232561003143000	     -1.94201530913779670000	      4.37487419952220690000	     -5.46530567481176450000	      6.20715573135732780000	     -6.50170024359657360000	     -3.78752679640224880000	    -52.63693961392063900000	    -20.41293855718617000000	      0.00000000000000032047	      0.00000000000000020625	     14.54775829428913900000	      5.03832778404554380000	     -2.47252280170827720000	    -11.78626102416586700000	     -0.56629470143466276000	     -0.00000000000000296837	     -0.00000000000000140317	     -0.51982438519751983000	     -7.00213167344877000000	      5.36850164035280120000
      0.22367000000000001000	      0.08283486579490734200	      0.80210577877531364000	     -0.28827153169097081000	     -1.93969621070838900000	      4.35589991001439360000	     -5.46722388444181110000	      6.38166067235531110000	     -6.47558010093406630000	     -3.77193056154666980000	    -52.79017800195078500000	    -20.32027696865132100000	      0.00000000000000033620	      0.00000000000000017551	     14.44631946946884100000	      5.03689949974829880000	     -2.46837188302227380000	    -11.73155741657112600000	     -0.56713845992775680000	     -0.00000000000000307564	     -0.00000000000000139438	     -0.54254897792839951000	     -6.97085041288326310000	      5.32157037556578500000
      0.22467000000000001000	      0.08366965383309862800	      0.80228891475139652000	     -0.28836416106762081000	     -1.93504963484790720000	      4.33767509937838990000	     -5.46728585916337110000	      6.55144821081259380000	     -6.45097214031106510000	     -3.75790110019778780000	    -52.93466974510870000000	    -20.25070963213211800000	      0.00000000000000035136	      0.00000000000000013795	     14.34175994083378600000	      5.03708791353405870000	     -2.46677702032303040000	    -11.67359324955521200000	     -0.59548606568298923000	     -0.00000000000000319228	     -0.00000000000000134517	     -0.56790545429998007000	     -6.94012770217842870000	      5.27227582992082410000
      0.22567000000000001000	      0.08450444187128991500	      0.80247205072747940000	     -0.28845679044427075000	     -1.93040305898742550000	      4.31945028874238530000	     -5.46734783388493200000	      6.72123574926987640000	     -6.42636417968806480000	     -3.74387163884890570000	    -53.07916148826661400000	    -20.18114229561291100000	      0.00000000000000036652	      0.00000000000000010039	     14.23720041219873000000	      5.03727632731981870000	     -2.46518215762378730000	    -11.61562908253929800000	     -0.62383367143822155000	     -0.00000000000000330893	     -0.00000000000000129596	     -0.59326193067156063000	     -6.90940499147359330000	      5.22298128427586320000
      0.22667000000000001000	      0.08534007233195502200	      0.80265615894398112000	     -0.28855539049466328000	     -1.92452012560611640000	      4.30120279201540520000	     -5.46431570372474700000	      6.88613041686326710000	     -6.40225452442179230000	     -3.73149321424919740000	    -53.20996309639682000000	    -20.13567624649400800000	      0.00000000000000037104	      0.00000000000000007686	     14.13137361908410500000	      5.03869424758859360000	     -2.46647357438059260000	    -11.55655969896968400000	     -0.66425624905761005000	     -0.00000000000000344360	     -0.00000000000000114489	     -0.61998396978333825000	     -6.87763065268319010000	      5.17005630471050460000
      0.22767000000000001000	      0.08617577373355617100	      0.80284034903347123000	     -0.28865449333931548000	     -1.91853307776616160000	      4.28295338487817560000	     -5.46102301701087180000	      7.05061305266760390000	     -6.37818683176874580000	     -3.71925382451153250000	    -53.33961184948859100000	    -20.09223978222258500000	      0.00000000000000037466	      0.00000000000000005450	     14.02544010881604200000	      5.04021570538573280000	     -2.46800804657888980000	    -11.49739724440625600000	     -0.70569566779101311000	     -0.00000000000000357980	     -0.00000000000000098524	     -0.64682100380803331000	     -6.84576775561819150000	      5.11682560397962400000
      0.22867000000000001000	      0.08701146070359505600	      0.80302271925767432000	     -0.28875585888209382000	     -1.91322466315885630000	      4.26408597462489780000	     -5.45663604903241590000	      7.21451960597458440000	     -6.35329615420281080000	     -3.70713248007882660000	    -53.46480055993711700000	    -20.04641489745788300000	      0.00000000000000037426	      0.00000000000000002928	     13.92085659875633400000	      5.04150659958849530000	     -2.46989830764327320000	    -11.44028072920380600000	     -0.73170511137222083000	     -0.00000000000000371620	     -0.00000000000000081791	     -0.67286977302661521000	     -6.81257312876495290000	      5.06243599395112920000
      0.22967000000000001000	      0.08784712793390296600	      0.80320260023986223000	     -0.28886031938101203000	     -1.90884449437710150000	      4.24437324942821800000	     -5.45075230493549600000	      7.37763818405781270000	     -6.32727978418161910000	     -3.69517259997807910000	    -53.58388874985969600000	    -19.99732309140803800000	      0.00000000000000036836	      0.00000000000000000011	     13.81811964144059400000	      5.04248212507114870000	     -2.47227522263769250000	    -11.38596268389612300000	     -0.73660917824287331000	     -0.00000000000000385290	     -0.00000000000000064009	     -0.69784034052960175000	     -6.77755693975232720000	      5.00646120850542080000
      0.23067000000000001000	      0.08868279516421089000	      0.80338248122205003000	     -0.28896477987993024000	     -1.90446432559534660000	      4.22466052423153910000	     -5.44486856083857700000	      7.54075676214104100000	     -6.30126341416042730000	     -3.68321271987733210000	    -53.70297693978227500000	    -19.94823128535819400000	      0.00000000000000036247	     -0.00000000000000002906	     13.71538268412485500000	      5.04345765055380110000	     -2.47465213763211180000	    -11.33164463858843800000	     -0.74151324511352568000	     -0.00000000000000398960	     -0.00000000000000046227	     -0.72281090803258841000	     -6.74254075073970240000	      4.95048642305971230000
      0.23167000000000001000	      0.08951797412642791000	      0.80355694215818030000	     -0.28907271085088021000	     -1.90210516359367300000	      4.20337285695663620000	     -5.43749503799554290000	      7.70386709072420130000	     -6.27278908875625700000	     -3.67048242044684070000	    -53.81558840411608500000	    -19.87319815059101600000	      0.00000000000000035875	     -0.00000000000000009478	     13.61642765934040400000	      5.04336673405852400000	     -2.47728240386518330000	    -11.28325326344761900000	     -0.69785725789823894000	     -0.00000000000000411763	     -0.00000000000000024886	     -0.74542251655627456000	     -6.70440915186850450000	      4.89301479997536150000
      0.23267000000000002000	      0.09035311197127629500	      0.80373094666876077000	     -0.28918093407250267000	     -1.89991619186729000000	      4.18195256280066460000	     -5.42999605993017910000	      7.86697672461167840000	     -6.24410777735510520000	     -3.65768724351118250000	    -53.92765445924008100000	    -19.79598047991860100000	      0.00000000000000035522	     -0.00000000000000016359	     13.51779111351652900000	      5.04318601180128920000	     -2.47993400496831870000	    -11.23536097699724800000	     -0.65011199742841752000	     -0.00000000000000424492	     -0.00000000000000003245	     -0.76783547563353449000	     -6.66601520233787250000	      4.83541712723482230000
      0.23367000000000002000	      0.09118765769299526400	      0.80390079633237710000	     -0.28929088880510551000	     -1.89907042388755310000	      4.15957250857218770000	     -5.42198836130953230000	      8.03015920862697110000	     -6.21361308823746760000	     -3.64345470499516110000	    -54.03555757254032000000	    -19.69088953731731100000	      0.00000000000000036185	     -0.00000000000000020713	     13.42148160944644000000	      5.04218255505629290000	     -2.48373397481358940000	    -11.19068644343740900000	     -0.57353971888441224000	     -0.00000000000000441173	      0.00000000000000026513	     -0.78860474920164070000	     -6.62555142563035120000	      4.77729154828969720000
      0.23467000000000002000	      0.09202200604033776400	      0.80406926104700560000	     -0.28940142070803515000	     -1.89867239049003160000	      4.13687253431954270000	     -5.41381108917045850000	      8.19336597601820140000	     -6.18251393988100160000	     -3.62874304595235310000	    -54.14207303856597500000	    -19.57650750407306000000	      0.00000000000000037187	     -0.00000000000000024224	     13.32594778596094900000	      5.04090485348204350000	     -2.48791673423957160000	    -11.14708449417441300000	     -0.48735843431568054000	     -0.00000000000000459170	      0.00000000000000058976	     -0.80882612760002903000	     -6.58439770653053370000	      4.71899000060971030000
      0.23567000000000002000	      0.09285610058240713300	      0.80423654995013971000	     -0.28951219131265626000	     -1.89861414344239150000	      4.11400550567540080000	     -5.40569484881408440000	      8.35660181190781340000	     -6.15092432019433840000	     -3.61322489160822440000	    -54.24714987311972400000	    -19.45375052976531900000	      0.00000000000000038311	     -0.00000000000000027301	     13.23080950157108200000	      5.03939151739009270000	     -2.49311172146523270000	    -11.10345628660181900000	     -0.39995790243364437000	     -0.00000000000000477362	      0.00000000000000091942	     -0.82858905054599818000	     -6.54274818768671640000	      4.66073080862390920000
